TITLE ""
FILE "Disc2Track17.mp3" MP3
  TRACK 01 AUDIO
    TITLE "Disc2Track17_01"
    INDEX 01 00:00:00
  TRACK 02 AUDIO
    TITLE "Disc2Track17_02"
    INDEX 01 00:01:22
  TRACK 03 AUDIO
    TITLE "Disc2Track17_03"
    INDEX 01 00:02:43
  TRACK 04 AUDIO
    TITLE "Disc2Track17_04"
    INDEX 01 00:03:71
  TRACK 05 AUDIO
    TITLE "Disc2Track17_05"
    INDEX 01 00:09:07
  TRACK 06 AUDIO
    TITLE "Disc2Track17_06"
    INDEX 01 00:09:39
  TRACK 07 AUDIO
    TITLE "Disc2Track17_07"
    INDEX 01 00:10:66
  TRACK 08 AUDIO
    TITLE "Disc2Track17_08"
    INDEX 01 00:13:25
  TRACK 09 AUDIO
    TITLE "Disc2Track17_09"
    INDEX 01 00:14:48
  TRACK 10 AUDIO
    TITLE "Disc2Track17_10"
    INDEX 01 00:17:11
  TRACK 11 AUDIO
    TITLE "Disc2Track17_11"
    INDEX 01 00:17:42
  TRACK 12 AUDIO
    TITLE "Disc2Track17_12"
    INDEX 01 00:18:73
  TRACK 13 AUDIO
    TITLE "Disc2Track17_13"
    INDEX 01 00:19:55
  TRACK 14 AUDIO
    TITLE "Disc2Track17_14"
    INDEX 01 00:21:10
  TRACK 15 AUDIO
    TITLE "Disc2Track17_15"
    INDEX 01 00:22:69
  TRACK 16 AUDIO
    TITLE "Disc2Track17_16"
    INDEX 01 00:23:25
  TRACK 17 AUDIO
    TITLE "Disc2Track17_17"
    INDEX 01 00:24:50
  TRACK 18 AUDIO
    TITLE "Disc2Track17_18"
    INDEX 01 00:25:67
  TRACK 19 AUDIO
    TITLE "Disc2Track17_19"
    INDEX 01 00:27:17
  TRACK 20 AUDIO
    TITLE "Disc2Track17_20"
    INDEX 01 00:29:63
  TRACK 21 AUDIO
    TITLE "Disc2Track17_21"
    INDEX 01 00:30:19
  TRACK 22 AUDIO
    TITLE "Disc2Track17_22"
    INDEX 01 00:31:58
  TRACK 23 AUDIO
    TITLE "Disc2Track17_23"
    INDEX 01 00:32:75
  TRACK 24 AUDIO
    TITLE "Disc2Track17_24"
    INDEX 01 00:34:39
  TRACK 25 AUDIO
    TITLE "Disc2Track17_25"
    INDEX 01 00:34:70
  TRACK 26 AUDIO
    TITLE "Disc2Track17_26"
    INDEX 01 00:36:37
  TRACK 27 AUDIO
    TITLE "Disc2Track17_27"
    INDEX 01 00:37:43
  TRACK 28 AUDIO
    TITLE "Disc2Track17_28"
    INDEX 01 00:39:08
  TRACK 29 AUDIO
    TITLE "Disc2Track17_29"
    INDEX 01 00:44:29
  TRACK 30 AUDIO
    TITLE "Disc2Track17_30"
    INDEX 01 00:44:62
  TRACK 31 AUDIO
    TITLE "Disc2Track17_31"
    INDEX 01 00:46:26
  TRACK 32 AUDIO
    TITLE "Disc2Track17_32"
    INDEX 01 00:47:43
  TRACK 33 AUDIO
    TITLE "Disc2Track17_33"
    INDEX 01 00:49:07
  TRACK 34 AUDIO
    TITLE "Disc2Track17_34"
    INDEX 01 00:53:75
  TRACK 35 AUDIO
    TITLE "Disc2Track17_35"
    INDEX 01 00:54:30
  TRACK 36 AUDIO
    TITLE "Disc2Track17_36"
    INDEX 01 00:55:60
  TRACK 37 AUDIO
    TITLE "Disc2Track17_37"
    INDEX 01 00:58:06
  TRACK 38 AUDIO
    TITLE "Disc2Track17_38"
    INDEX 01 00:59:37
  TRACK 39 AUDIO
    TITLE "Disc2Track17_39"
    INDEX 01 01:03:27
  TRACK 40 AUDIO
    TITLE "Disc2Track17_40"
    INDEX 01 01:03:58
  TRACK 41 AUDIO
    TITLE "Disc2Track17_41"
    INDEX 01 01:05:12
  TRACK 42 AUDIO
    TITLE "Disc2Track17_42"
    INDEX 01 01:07:30
  TRACK 43 AUDIO
    TITLE "Disc2Track17_43"
    INDEX 01 01:08:59
  TRACK 44 AUDIO
    TITLE "Disc2Track17_44"
    INDEX 01 01:11:24
